<svg xmlns="http://www.w3.org/2000/svg" viewBox="0 0 559 329" width="559" height="329" style="position: absolute;"><path fill="none" stroke="red" stroke-linecap="round" stroke-linejoin="round" stroke-width="1" d="M148,9 C 146.65,10.65 96.5,71.125 94,75 C 91.5,78.875 49.8,159.625 48,164 C 46.2,168.375 22.75,246.15 22,250 C 21.25,253.85 17.55,316.35 18,318 C 18.45,319.65 39.45,316.75 40,316 C 40.55,315.25 39.725,288.8 40,288 C 40.275,287.2 50.375,285.825 51,284 C 51.625,282.175 64.025,218.425 65,215 C 65.975,211.575 88.8,149.85 90,147 C 91.2,144.15 111.425,103.575 113,101 C 114.575,98.425 147.45,45.4 153,44 C 158.55,42.6 328.475,44.925 335,45 C 341.525,45.075 411.5,46.3 414,47 C 416.5,47.7 433.575,70.775 435,73 C 436.425,75.225 469.575,133.125 471,136 C 472.425,138.875 491.075,185.375 492,188 C 492.925,190.625 507.425,238.45 508,241 C 508.575,243.55 514.625,288.7 515,290 C 515.375,291.3 522.725,292.2 523,293 C 523.275,293.8 525.35,321.3 526,322 C 526.65,322.7 548.475,322.05 549,321 C 549.525,319.95 547.5,283.075 547,280 C 546.5,276.925 530.625,202.7 529,198 C 527.375,193.3 484.65,96.625 482,92 C 479.35,87.375 425.55,15 423,13 C 420.45,11 381.2,11.7 380,12 C 378.8,12.3 375.85,24.7 375,25 C 374.15,25.3 346.8,24.325 346,24 C 345.2,23.675 344.3,12.325 343,12 C 341.7,11.675 295.275,10.725 294,11 C 292.725,11.275 292.25,22.675 292,23 C 291.75,23.325 284.425,24.025 284,24 C 283.575,23.975 275.275,22.325 275,22 C 274.725,21.675 274.3,11.3 273,11 C 271.7,10.7 224.325,9.725 223,10 C 221.675,10.275 220.825,21.7 220,22 C 219.175,22.3 190.8,22.325 190,22 C 189.2,21.675 189.025,9.325 188,9 C 186.975,8.675 149.975,9 149,9"/><path fill="none" stroke="red" stroke-linecap="round" stroke-linejoin="round" stroke-width="1" d="M189,9 C 189.025,9.325 189.225,21.675 190,22 C 190.775,22.325 219.175,22.3 220,22 C 220.825,21.7 222.025,10.3 223,10 C 223.975,9.7 257.7,9.95 259,10 C 260.3,10.05 274.6,11.725 275,12 C 275.4,12.275 274.775,20.7 275,21 C 275.225,21.3 283.575,23.95 284,24 C 284.425,24.05 291.75,23.325 292,23 C 292.25,22.675 292.725,11.275 294,11 C 295.275,10.725 341.7,11.675 343,12 C 344.3,12.325 345.2,23.675 346,24 C 346.8,24.325 374.15,25.3 375,25 C 375.85,24.7 378.775,12.3 380,12 C 381.225,11.7 421.5,11.1 424,13 C 426.5,14.9 477.675,84.225 480,88 C 482.325,91.775 515.475,160.075 517,164 C 518.525,167.925 540.225,241.05 541,245 C 541.775,248.95 548.425,320.1 548,322 C 547.575,323.9 524.625,321.725 524,321 C 523.375,320.275 523.225,293.75 523,293 C 522.775,292.25 515.375,292.275 515,291 C 514.625,289.725 508.7,244.9 508,242 C 507.3,239.1 488.425,178.575 487,175 C 485.575,171.425 452.725,102.125 451,99 C 449.275,95.875 420.9,51.35 418,50 C 415.1,48.65 341.6,45.15 335,45 C 328.4,44.85 159.55,42.575 154,44 C 148.45,45.425 114.6,99.425 113,102 C 111.4,104.575 91.2,144.175 90,147 C 88.8,149.825 65.975,211.575 65,215 C 64.025,218.425 51.625,282.15 51,284 C 50.375,285.85 40.275,288.175 40,289 C 39.725,289.825 40.6,316.3 40,317 C 39.4,317.7 16.525,318.25 16,317 C 15.475,315.75 18.625,269.6 19,267 C 19.375,264.4 29.575,217.075 31,213 C 32.425,208.925 73.25,108.975 76,104 C 78.75,99.025 139.2,16.375 141,14 C 142.8,11.625 146.825,9.125 148,9 C 149.175,8.875 187,9 188,9"/></svg>