<svg xmlns="http://www.w3.org/2000/svg" viewBox="0 0 559 329" width="559" height="329" style="position: absolute;">
<path fill="none" stroke="red" stroke-linecap="round" stroke-linejoin="round" stroke-width="1" d="M148,9 C 154.15,9 182.85,9 189,9"/>
<path fill="none" stroke="red" stroke-linecap="round" stroke-linejoin="round" stroke-width="1" d="M146,10 C 146.15,10 146.85,10 147,10"/>
<path fill="none" stroke="red" stroke-linecap="round" stroke-linejoin="round" stroke-width="1" d="M189,10 C 189,10 189,10 189,10"/>
<path fill="none" stroke="red" stroke-linecap="round" stroke-linejoin="round" stroke-width="1" d="M223,10 C 224.8,10 233.2,10 235,10"/>
<path fill="none" stroke="red" stroke-linecap="round" stroke-linejoin="round" stroke-width="1" d="M254,10 C 254.75,10 258.25,10 259,10"/>
<path fill="none" stroke="red" stroke-linecap="round" stroke-linejoin="round" stroke-width="1" d="M146,11 C 146,11 146,11 146,11"/>
<path fill="none" stroke="red" stroke-linecap="round" stroke-linejoin="round" stroke-width="1" d="M189,11 C 189,11 189,11 189,11"/>
<path fill="none" stroke="red" stroke-linecap="round" stroke-linejoin="round" stroke-width="1" d="M222,11 C 222,11 222,11 222,11"/>

</svg>