<svg xmlns="http://www.w3.org/2000/svg" viewBox="0 0 559 329" width="559" height="329" style="position: absolute;"><path fill="none" stroke="red" stroke-linecap="round" stroke-linejoin="round" stroke-width="1" d="M148,9 C 139.9,18.9 109,51.75 94,75 C 79,98.25 58.8,137.75 48,164 C 37.2,190.25 26.5,226.9 22,250 C 17.5,273.1 15.3,308.1 18,318 C 20.7,327.9 36.7,320.5 40,316 C 43.3,311.5 38.35,292.8 40,288 C 41.65,283.2 47.25,294.95 51,284 C 54.75,273.05 59.15,235.55 65,215 C 70.85,194.45 82.8,164.1 90,147 C 97.2,129.9 103.55,116.45 113,101 C 122.45,85.55 119.69999999999999,52.4 153,44 C 186.3,35.6 295.85,44.55 335,45 C 374.15,45.45 399,42.8 414,47 C 429,51.2 426.45,59.65 435,73 C 443.55,86.35 462.45,118.75 471,136 C 479.55,153.25 486.45,172.25 492,188 C 497.55,203.75 504.55,225.7 508,241 C 511.45,256.3 512.75,282.2 515,290 C 517.25,297.8 521.35,288.2 523,293 C 524.65,297.8 522.1,317.8 526,322 C 529.9,326.2 545.85,327.3 549,321 C 552.15,314.7 550,298.45 547,280 C 544,261.55 538.75,226.2 529,198 C 519.25,169.8 497.9,119.75 482,92 C 466.1,64.25 438.3,25 423,13 C 407.7,1 387.2,10.2 380,12 C 372.8,13.8 380.1,23.2 375,25 C 369.9,26.8 350.8,25.95 346,24 C 341.2,22.05 350.8,13.95 343,12 C 335.2,10.05 301.65,9.35 294,11 C 286.35,12.65 293.5,21.05 292,23 C 290.5,24.95 286.55,24.15 284,24 C 281.45,23.85 276.65,23.95 275,22 C 273.35,20.05 280.8,12.8 273,11 C 265.2,9.2 230.95,8.35 223,10 C 215.05,11.65 224.95,20.2 220,22 C 215.05,23.8 194.8,23.95 190,22 C 185.2,20.05 194.15,10.95 188,9 C 181.85,7.05 154.85,9 149,9"/><path fill="none" stroke="red" stroke-linecap="round" stroke-linejoin="round" stroke-width="1" d="M189,9 C 189.15,10.95 185.35,20.05 190,22 C 194.65,23.95 215.05,23.8 220,22 C 224.95,20.2 217.15,11.8 223,10 C 228.85,8.2 251.2,9.7 259,10 C 266.8,10.3 272.6,10.35 275,12 C 277.4,13.65 273.65,19.2 275,21 C 276.35,22.8 281.45,23.7 284,24 C 286.55,24.3 290.5,24.95 292,23 C 293.5,21.05 286.35,12.65 294,11 C 301.65,9.35 335.2,10.05 343,12 C 350.8,13.95 341.2,22.05 346,24 C 350.8,25.95 369.9,26.8 375,25 C 380.1,23.2 372.65,13.8 380,12 C 387.35,10.2 409,1.5999999999999996 424,13 C 439,24.4 466.05,65.35 480,88 C 493.95,110.65 507.85,140.45 517,164 C 526.15,187.55 536.35,221.3 541,245 C 545.65,268.7 550.55,310.6 548,322 C 545.45,333.4 527.75,325.35 524,321 C 520.25,316.65 524.35,297.5 523,293 C 521.65,288.5 517.25,298.65 515,291 C 512.75,283.35 512.2,259.4 508,242 C 503.8,224.6 495.55,196.45 487,175 C 478.45,153.55 461.35,117.75 451,99 C 440.65,80.25 435.4,58.1 418,50 C 400.6,41.9 374.6,45.9 335,45 C 295.4,44.1 187.3,35.45 154,44 C 120.69999999999999,52.55 122.6,86.55 113,102 C 103.4,117.45 97.2,130.05 90,147 C 82.8,163.95 70.85,194.45 65,215 C 59.15,235.55 54.75,272.9 51,284 C 47.25,295.1 41.65,284.05 40,289 C 38.35,293.95 43.6,312.8 40,317 C 36.4,321.2 19.15,324.5 16,317 C 12.85,309.5 16.75,282.6 19,267 C 21.25,251.4 22.45,237.45 31,213 C 39.55,188.55 59.5,133.85 76,104 C 92.5,74.15 130.2,28.25 141,14 C 151.8,-0.25 140.95,9.75 148,9 C 155.05,8.25 182,9 188,9"/></svg>