<svg width="100%" height="100%" xmlns="http://www.w3.org/2000/svg"
                   fill="transparent" stroke="black" strokeWidth="2px" vector-effect="non-scaling-stroke"
                    viewBox = "-66.13560205554408 -84.37201000000002 135.27115621621624 115.62782000000001"
                    preserveAspectRatio = xMidYMid meet"
                    transform="matrix(1 0 0 -1 0 0)" >
<path d="M 0 23 A 49.5581 49.5581  0 0 0 49.2512 -32.0647M 49.2512 -32.0647 A 34.00003063366266 34.00003063366266  0 0 0 43.857 -46.9874M 43.857 -46.9874 A 12.99999265538254 12.99999265538254  0 0 0 30.3477 -52.5637M 30.3477 -52.5637 A 13.000018883832436 13.000018883832436  0 1 0 8.3046 -39.8372M 8.3046 -39.8372 A 13.00006066332 13.00006066332  0 0 0 11.5 -19.9186M 11.5 -19.9186 A 23.000013607822062 23.000013607822062  0 0 1 0 23"/>
</svg>