<svg width="100%" height="100%" xmlns="http://www.w3.org/2000/svg"
                   fill="transparent" stroke="black" strokeWidth="2px" vector-effect="non-scaling-stroke"
                    viewBox = "-65.24272313662517 -84.37201000000002 133.48539837837842 115.62782000000004"
                    preserveAspectRatio = "MidYMid meet"
                    transform="matrix(1 0 0 -1 0 0)" >
<path d="M -46.5075 -28.7287 A 46.558125613151574 46.558125613151574  0 0 0 -18.6548 16.0993M -18.6548 16.0993 A 31.000004658709326 31.000004658709326  0 0 0 -4.4125 18.643M -4.4125 18.643 A 9.999972776962945 9.999972776962945  0 0 0 5 8.6603M 5 8.6603 A 10.00003980442078 10.00003980442078  0 1 0 5 -8.6603M 5 -8.6603 A 10 10  0 0 0 -10 -17.3205M -10 -17.3205 A 26.000034209400567 26.000034209400567  0 0 1 -46.5075 -28.7287"/>
<path d="M -42.9186 -51.3372 A 49.55814789487194 49.55814789487194  0 0 0 -19.8568 18.848M -19.8568 18.848 A 34.000030606603865 34.000030606603865  0 0 0 -4.2362 21.6378M -4.2362 21.6378 A 12.99995756493074 12.99995756493074  0 0 0 7.3477 12.7266M 7.3477 12.7266 A 13.000040109553508 13.000040109553508  0 1 0 7.3477 -12.7266M 7.3477 -12.7266 A 13.000018883832439 13.000018883832439  0 0 0 -11.5 -19.9186M -11.5 -19.9186 A 23.000013607822062 23.000013607822062  0 0 1 -42.9186 -51.3372"/>
<path d="M 0 23 A 49.5581 49.5581  0 0 1 -19.8568 18.848M -19.8568 18.848 A 34.000030606603865 34.000030606603865  0 0 0 -4.2362 21.6378M -4.2362 21.6378 A 12.99995756493074 12.99995756493074  0 0 0 7.3477 12.7266M 7.3477 12.7266 A 13.000040109553508 13.000040109553508  0 0 0 23 0M 23 0 A 23 23  0 0 1 0 23"/>
<path d="M 25.1335 -65.7495 A 46.558121270193034 46.558121270193034  0 0 0 -27.615 -64.0423M -27.615 -64.0423 A 30.999975933700338 30.999975933700338  0 0 0 -36.9391 -52.98M -36.9391 -52.98 A 10.000060578316512 10.000060578316512  0 0 0 -33 -39.8372M -33 -39.8372 A 10.00003980442078 10.00003980442078  0 1 0 -18 -31.1769M -18 -31.1769 A 10.000039804420776 10.000039804420776  0 0 0 -3 -39.8372M -3 -39.8372 A 26 26  0 0 1 25.1335 -65.7495"/>
<path d="M 42.9186 -51.3372 A 49.55814789487194 49.55814789487194  0 0 0 -29.3944 -66.4577M -29.3944 -66.4577 A 33.99996567527678 33.99996567527678  0 0 0 -39.6208 -54.3247M -39.6208 -54.3247 A 13.00001607422083 13.00001607422083  0 0 0 -37.6954 -39.8372M -37.6954 -39.8372 A 13.00006066332 13.00006066332  0 1 0 -15.6523 -27.1106M -15.6523 -27.1106 A 13.00004010955351 13.00004010955351  0 0 0 0 -39.8372M 0 -39.8372 A 23 23  0 0 1 42.9186 -51.3372"/>
<path d="M -42.9186 -51.3372 A 49.55814789487194 49.55814789487194  0 0 1 -29.3944 -66.4577M -29.3944 -66.4577 A 33.99996567527678 33.99996567527678  0 0 0 -39.6208 -54.3247M -39.6208 -54.3247 A 13.00001607422083 13.00001607422083  0 0 0 -37.6954 -39.8372M -37.6954 -39.8372 A 13.00006066332 13.00006066332  0 0 0 -34.5 -19.9186M -34.5 -19.9186 A 23.000013607822062 23.000013607822062  0 0 1 -42.9186 -51.3372"/>
<path d="M 21.374 14.8038 A 46.558167060141024 46.558167060141024  0 0 0 46.2698 -31.7313M 46.2698 -31.7313 A 30.999958778198405 30.999958778198405  0 0 0 41.3515 -45.3373M 41.3515 -45.3373 A 9.999987614492332 9.999987614492332  0 0 0 28 -48.4974M 28 -48.4974 A 10 10  0 1 0 13 -39.8372M 13 -39.8372 A 10.00003980442078 10.00003980442078  0 0 0 13 -22.5167M 13 -22.5167 A 26.00003420940057 26.00003420940057  0 0 1 21.374 14.8038"/>
<path d="M 0 23 A 49.5581 49.5581  0 0 0 49.2512 -32.0647M 49.2512 -32.0647 A 34.00003063366266 34.00003063366266  0 0 0 43.857 -46.9874M 43.857 -46.9874 A 12.99999265538254 12.99999265538254  0 0 0 30.3477 -52.5637M 30.3477 -52.5637 A 13.000018883832436 13.000018883832436  0 1 0 8.3046 -39.8372M 8.3046 -39.8372 A 13.00006066332 13.00006066332  0 0 0 11.5 -19.9186M 11.5 -19.9186 A 23.000013607822062 23.000013607822062  0 0 1 0 23"/>
<path d="M 42.9186 -51.3372 A 49.55814789487194 49.55814789487194  0 0 1 49.2512 -32.0647M 49.2512 -32.0647 A 34.00003063366266 34.00003063366266  0 0 0 43.857 -46.9874M 43.857 -46.9874 A 12.99999265538254 12.99999265538254  0 0 0 30.3477 -52.5637M 30.3477 -52.5637 A 13.000018883832436 13.000018883832436  0 0 0 11.5 -59.7558M 11.5 -59.7558 A 23.000013607822066 23.000013607822066  0 0 1 42.9186 -51.3372"/>
<path d="M -11.5 -19.9186 A 23.000013607822062 23.000013607822062  0 0 1 11.5 -19.9186M 11.5 -19.9186 A 23.000013607822062 23.000013607822062  0 0 1 0 -39.8372M 0 -39.8372 A 23 23  0 0 1 -11.5 -19.9186"/>
<path d="M 0 -30.1162 A 3.5580999999999996 3.5580999999999996  0 0 1 0 -23M 0 -23 A 3.5580999999999996 3.5580999999999996  0 0 1 0 -30.1162"/>
<path d="M 0 26 A 52.5581 52.5581  0 0 0 0 -79.1162M 0 -79.1162 A 52.5581 52.5581  0 0 0 0 26"/>
</svg>